<?xml version="1.0" encoding="UTF-8"?>
<svg id="_レイヤー_2" data-name="レイヤー 2" xmlns="http://www.w3.org/2000/svg" width="440.59" height="94.67" viewBox="0 0 440.59 94.67">
  <defs>
    <style>
      .cls-1 {
        fill: #fff;
      }

      .cls-2, .cls-3, .cls-4, .cls-5 {
        fill: none;
        stroke: #fff;
      }

      .cls-2, .cls-4 {
        stroke-miterlimit: 10;
      }

      .cls-3 {
        stroke-width: 3px;
      }

      .cls-3, .cls-5 {
        stroke-linecap: round;
        stroke-linejoin: round;
      }

      .cls-4 {
        stroke-width: .75px;
      }
    </style>
  </defs>
  <g id="_ヘッダー" data-name="ヘッダー">
    <g id="_ヘッダー-2" data-name="ヘッダー">
      <g id="_ヘッダー_左_" data-name="ヘッダー【左】">
        <g>
          <path class="cls-1" d="M221.32,8.95c.13,1.68.37,3.88.71,6.61v.16c0,.24-.23.36-.71.36-.16,0-.28-.08-.34-.24-.67-1.96-1.55-3.38-2.64-4.25-.95-.77-2.58-1.15-4.89-1.15-.99,0-1.68.07-2.05.2-.31.11-.56.32-.77.62-.24.39-.4.89-.46,1.51-.07.64-.1,1.82-.1,3.52v15.09c0,1.87.03,3.07.1,3.61.07.46.21.84.42,1.15.23.31.58.53,1.07.66.46.12,1.24.23,2.36.32.26.03.38.2.38.52,0,.39-.13.58-.38.58-2.22-.11-4.08-.16-5.6-.16s-3.34.05-5.34.16c-.24,0-.36-.19-.36-.58,0-.32.12-.5.36-.52,1.75-.15,2.78-.48,3.1-.99.36-.56.54-2.24.54-5.04v-15.77c0-2.27-.17-3.65-.5-4.15-.32-.5-1.26-.75-2.8-.75-2.18,0-3.76.38-4.75,1.15-1.09.87-1.99,2.29-2.72,4.25-.07.16-.16.24-.28.24-.47,0-.71-.12-.71-.36v-.12c.35-2.65.6-4.86.75-6.65,3.68.13,7.93.2,12.75.2s9.19-.07,12.87-.2Z"/>
          <path class="cls-1" d="M240.92,8.28c4.65,0,8.39,1.6,11.24,4.81,2.48,2.81,3.73,6.28,3.73,10.41,0,4.77-1.6,8.62-4.79,11.56-2.77,2.55-6.16,3.83-10.17,3.83-4.62,0-8.36-1.63-11.22-4.89-2.48-2.83-3.73-6.3-3.73-10.41,0-4.73,1.59-8.56,4.77-11.5,2.77-2.54,6.16-3.81,10.17-3.81ZM240.92,9.69c-3.4,0-6.12,1.44-8.18,4.31-1.81,2.52-2.72,5.69-2.72,9.51,0,4.48,1.15,8.02,3.46,10.61,1.97,2.22,4.45,3.32,7.43,3.32,3.41,0,6.14-1.43,8.2-4.29,1.81-2.51,2.72-5.69,2.72-9.53,0-4.46-1.17-8-3.52-10.61-2-2.22-4.46-3.32-7.39-3.32Z"/>
          <path class="cls-1" d="M287.99,9.07c.93.03,2.08.04,3.46.04,1.15,0,2.57-.05,4.25-.16.27,0,.4.21.4.62,0,.32-.13.5-.4.52-1.76.11-2.81.44-3.14.99-.34.55-.5,1.61-.5,3.18v.5l.18,15.99c.01,2.15.07,3.54.16,4.19.08.48.23.89.44,1.23.23.31.56.53,1.01.66.43.12,1.17.23,2.24.32.27.04.4.21.4.52,0,.36-.13.54-.4.54-2.23-.11-4.06-.16-5.5-.16s-3.16.05-5.22.16c-.19,0-.28-.18-.28-.54,0-.31.09-.48.28-.52,1.75-.13,2.78-.46,3.1-.99.34-.54.5-1.79.5-3.77l-.12-19.09h-.46l-6.26,14.32c-1.38,3.12-2.81,6.53-4.29,10.23-.11.24-.32.36-.62.36-.19,0-.34-.12-.44-.36-1.49-3.76-2.8-6.91-3.93-9.45l-6.57-15.11h-.44l-.12,17.44v.68c0,2.5.19,4.08.58,4.73.2.31.52.53.97.66.42.12,1.12.23,2.11.32.28.03.42.2.42.52,0,.36-.14.54-.42.54-2-.11-3.5-.16-4.49-.16-1.29,0-2.83.05-4.63.16-.24,0-.36-.18-.36-.54,0-.32.12-.5.36-.52,1.5-.13,2.43-.48,2.78-1.03.29-.54.5-1.16.6-1.87.11-.73.18-1.89.22-3.5l.36-16.46v-.38c0-1.41-.17-2.36-.5-2.84-.38-.48-1.45-.81-3.22-.99-.24-.03-.36-.19-.36-.48,0-.44.12-.66.36-.66,2.13.11,3.61.16,4.43.16,1.34,0,2.54-.01,3.59-.04.46,1.62,1.01,3.18,1.65,4.67l5.66,13.39c.34.77.77,1.77,1.29,3.02.55,1.33.93,2.24,1.13,2.72,1.15-2.77,1.98-4.68,2.48-5.74l5.32-12.83c.7-1.58,1.35-3.33,1.95-5.24Z"/>
          <path class="cls-1" d="M310.48,14.85l-.4-1.55c1.11.19,2.12.28,3.02.28h8.7c.99-1.21,1.61-1.81,1.85-1.81.2,0,.9.48,2.09,1.45.5.43.75.76.75.99,0,.27-.18.4-.54.4h-12.85c-.63,0-1.5.08-2.62.24ZM312.1,9.23l-.4-1.51c.93.16,1.89.24,2.88.24h5.46c.99-1.18,1.6-1.77,1.81-1.77.23,0,.93.48,2.09,1.45.52.39.79.72.79.99,0,.24-.19.36-.58.36h-9.57c-.58,0-1.4.08-2.48.24ZM312.28,20.25l-.46-1.55c1.07.19,2.03.28,2.88.28h5.38c.86-1.1,1.42-1.65,1.69-1.65s.93.47,1.97,1.41c.44.4.66.7.66.91,0,.24-.18.36-.54.36h-9.16c-.54,0-1.34.08-2.42.24ZM312.36,25.52l-.46-1.51c1.11.19,2.09.28,2.94.28h5.1c.95-1.15,1.54-1.73,1.75-1.73.23,0,.9.46,2.01,1.37.5.42.75.75.75.99,0,.27-.18.4-.54.4h-9.06c-.79,0-1.62.07-2.48.2ZM320.96,39.93h-6.38v1.57c0,.71-.47,1.07-1.41,1.07-.74,0-1.11-.3-1.11-.91l.16-7.05c0-2.97-.08-5.07-.24-6.3,1.06.4,2.06.89,3,1.45h5.74c.78-.89,1.26-1.33,1.43-1.33.21,0,.74.36,1.57,1.07.47.4.71.73.71.97s-.37.6-1.11,1.07v2.38l.16,6.45c0,.68-.5,1.03-1.49,1.03-.68,0-1.03-.27-1.03-.83v-.62ZM320.96,38.9v-8.12h-6.38v8.12h6.38ZM335.98,35.43c-3.26,3.09-7.28,5.34-12.04,6.77h-.06c-.17,0-.26-.12-.26-.36,0-.09.04-.15.12-.18,4.24-1.84,7.89-4.45,10.94-7.83-2-2.65-3.59-5.83-4.75-9.57-1.1,0-2.06.08-2.88.24l-.38-1.51c1.09.16,2.24.24,3.46.24h10.27c.91-.94,1.45-1.41,1.61-1.41.21,0,.81.44,1.77,1.33.5.46.75.8.75,1.03,0,.28-.47.58-1.41.91-1.57,3.49-3.45,6.43-5.64,8.82.43.36.66.56.7.58,2.46,1.99,5.7,3.51,9.73,4.57.08.01.12.07.12.16,0,.13-.07.21-.2.24-.5.12-.85.31-1.07.56-.21.24-.41.64-.58,1.21-.11.36-.3.54-.58.54-.23,0-.69-.17-1.39-.5-3.09-1.42-5.76-3.3-8.02-5.64l-.2-.2ZM346.44,13.16c.03-.11.1-.16.22-.16.17,0,.26.08.26.24-.11,1.45-.16,2.36-.16,2.72,0,.47.21.76.62.87.32.08.48.38.48.91,0,.75-.48,1.25-1.45,1.49-.99.24-2.39.36-4.19.36-1.67,0-2.79-.25-3.36-.75-.48-.43-.73-1.14-.73-2.14l.12-4.45v-3.63h-6.14v1.15c0,3.17-.44,5.58-1.31,7.23-.93,1.65-2.67,3.16-5.24,4.51-.03.01-.05.02-.08.02-.23,0-.34-.11-.34-.34,0-.05.02-.1.06-.14,1.77-1.42,3.01-3.09,3.73-5,.47-1.33.7-3.3.7-5.9,0-1.32-.08-2.64-.24-3.97,1.22.5,2.21.97,2.96,1.41h5.7c.74-.85,1.2-1.27,1.39-1.27.21,0,.75.36,1.61,1.07.44.38.66.68.66.91,0,.27-.36.61-1.07,1.03v6.55c0,.62.13,1.01.38,1.19.24.16.72.24,1.43.24,1.26,0,2.05-.15,2.36-.44.43-.38.97-1.61,1.61-3.71ZM330.87,24.26c1.17,3.06,2.85,5.79,5.04,8.18,2.05-2.62,3.61-5.34,4.65-8.18h-9.69Z"/>
          <path class="cls-1" d="M352.2,14.81l-.4-1.59c.99.21,2.01.32,3.06.32h10.05c1.01-1.24,1.63-1.85,1.87-1.85.25,0,.94.48,2.05,1.45.55.48.83.84.83,1.07,0,.24-.18.36-.54.36h-14.26c-1.01,0-1.89.08-2.66.24ZM354.07,20.17l-.42-1.59c.95.21,1.92.32,2.9.32h6.26c.89-1.1,1.45-1.65,1.69-1.65.23,0,.89.44,1.97,1.33.5.39.75.7.75.95,0,.27-.18.4-.54.4h-10.13c-.9,0-1.73.08-2.48.24ZM354.11,9.27l-.42-1.55c.87.19,1.87.28,2.98.28h6.02c1.09-1.26,1.73-1.89,1.93-1.89.26,0,.99.5,2.22,1.49.55.42.83.77.83,1.07,0,.24-.17.36-.52.36h-10.47c-.91,0-1.77.08-2.56.24ZM354.23,25.48l-.46-1.59c1.03.21,2.01.32,2.94.32h6.1c.89-1.13,1.44-1.69,1.65-1.69.2,0,.87.47,2.01,1.41.47.36.7.68.7.95,0,.24-.18.36-.54.36h-9.93c-.86,0-1.69.08-2.48.24ZM363.68,39.89h-7.05v1.37c0,.71-.51,1.07-1.53,1.07-.68,0-1.03-.3-1.03-.91l.12-6.93c0-2.83-.08-4.88-.24-6.14,1.07.43,2.09.93,3.04,1.49h6.36c.85-.91,1.35-1.37,1.51-1.37.21,0,.77.37,1.65,1.11.47.4.71.72.71.95,0,.27-.37.64-1.11,1.13v2.44l.12,6.63c0,.77-.5,1.15-1.49,1.15-.71,0-1.07-.3-1.07-.91v-1.07ZM363.68,38.86v-8h-7.05v8h7.05ZM378.91,19.88h5.2c1.21-1.46,1.91-2.2,2.09-2.2.17,0,.93.58,2.28,1.73.6.48.91.86.91,1.13,0,.24-.17.36-.52.36h-9.95c0,7.55.08,14.21.24,19.98,0,.85-.6,1.27-1.81,1.27-.79,0-1.19-.34-1.19-1.03.13-4.58.2-10.86.2-18.85v-1.37h-5.04c-.78,0-1.69.08-2.72.24l-.42-1.55c.87.19,1.92.28,3.14.28h5.04c0-8.41-.09-13.23-.28-14.48,1.92.19,3.14.37,3.65.54.43.13.64.34.64.6,0,.3-.48.66-1.45,1.09v12.25Z"/>
        </g>
        <g id="_フリガナ" data-name="フリガナ">
          <g>
            <path class="cls-1" d="M205.59,70.59c.04.49.11,1.13.21,1.92v.05c0,.07-.07.11-.21.11-.05,0-.08-.02-.1-.07-.2-.57-.45-.98-.77-1.24-.28-.22-.75-.33-1.42-.33-.29,0-.49.02-.6.06-.09.03-.16.09-.22.18-.07.11-.12.26-.13.44-.02.19-.03.53-.03,1.03v4.39c0,.54,0,.89.03,1.05.02.13.06.24.12.33.07.09.17.15.31.19.13.04.36.07.69.09.07,0,.11.06.11.15,0,.11-.04.17-.11.17-.64-.03-1.19-.05-1.63-.05s-.97.02-1.55.05c-.07,0-.11-.06-.11-.17,0-.09.04-.14.11-.15.51-.04.81-.14.9-.29.11-.16.16-.65.16-1.46v-4.59c0-.66-.05-1.06-.15-1.21-.09-.14-.37-.22-.81-.22-.63,0-1.09.11-1.38.33-.32.25-.58.67-.79,1.24-.02.05-.05.07-.08.07-.14,0-.21-.04-.21-.11v-.04c.1-.77.17-1.41.22-1.93,1.07.04,2.31.06,3.71.06s2.67-.02,3.74-.06Z"/>
            <path class="cls-1" d="M213.09,70.4c1.35,0,2.44.47,3.27,1.4.72.82,1.08,1.83,1.08,3.03,0,1.39-.46,2.51-1.39,3.36-.8.74-1.79,1.11-2.96,1.11-1.34,0-2.43-.47-3.26-1.42-.72-.82-1.08-1.83-1.08-3.03,0-1.38.46-2.49,1.39-3.35.8-.74,1.79-1.11,2.96-1.11ZM213.09,70.81c-.99,0-1.78.42-2.38,1.25-.53.73-.79,1.66-.79,2.77,0,1.3.34,2.33,1.01,3.09.57.64,1.29.97,2.16.97.99,0,1.79-.42,2.38-1.25.53-.73.79-1.65.79-2.77,0-1.3-.34-2.33-1.03-3.09-.58-.64-1.3-.97-2.15-.97Z"/>
            <path class="cls-1" d="M228.59,70.63c.27,0,.61.01,1.01.01.34,0,.75-.02,1.24-.05.08,0,.12.06.12.18,0,.09-.04.14-.12.15-.51.03-.82.13-.91.29s-.15.47-.15.93v.15l.05,4.65c0,.62.02,1.03.05,1.22.02.14.07.26.13.36.07.09.16.15.29.19.12.04.34.07.65.09.08.01.12.06.12.15,0,.11-.04.16-.12.16-.65-.03-1.18-.05-1.6-.05s-.92.02-1.52.05c-.05,0-.08-.05-.08-.16,0-.09.03-.14.08-.15.51-.04.81-.13.9-.29.1-.16.15-.52.15-1.1l-.04-5.55h-.13l-1.82,4.17c-.4.91-.82,1.9-1.25,2.98-.03.07-.09.11-.18.11-.05,0-.1-.04-.13-.11-.43-1.09-.81-2.01-1.14-2.75l-1.91-4.39h-.13l-.04,5.07v.2c0,.73.06,1.19.17,1.38.06.09.15.15.28.19.12.04.33.07.62.09.08,0,.12.06.12.15,0,.11-.04.16-.12.16-.58-.03-1.02-.05-1.31-.05-.38,0-.82.02-1.35.05-.07,0-.11-.05-.11-.16,0-.09.04-.14.11-.15.44-.04.71-.14.81-.3.09-.16.14-.34.18-.54.03-.21.05-.55.06-1.02l.11-4.79v-.11c0-.41-.05-.69-.15-.83-.11-.14-.42-.24-.94-.29-.07,0-.11-.05-.11-.14,0-.13.04-.19.11-.19.62.03,1.05.05,1.29.05.39,0,.74,0,1.04-.01.13.47.29.93.48,1.36l1.65,3.9c.1.22.22.52.38.88.16.39.27.65.33.79.34-.8.58-1.36.72-1.67l1.55-3.73c.2-.46.39-.97.57-1.52Z"/>
          </g>
          <g>
            <path class="cls-1" d="M247.89,75.78c-.56-.03-1.02-.05-1.37-.05-.53,0-1.03.02-1.5.05l-.49,1.34c-.18.49-.28.86-.28,1.11,0,.2.07.34.21.42.14.07.41.12.8.15.07,0,.11.06.11.15,0,.11-.04.16-.11.16-.87-.02-1.35-.04-1.44-.04-.43,0-.84.01-1.21.04-.07,0-.11-.05-.11-.16,0-.09.04-.14.11-.15.32-.04.55-.14.69-.29.18-.2.42-.68.71-1.44l1.42-3.76c.47-1.27.78-2.12.91-2.55l.69-.34c.05,0,.09.03.11.1.25.82.56,1.78.94,2.85l1.35,3.79c.25.7.45,1.15.59,1.35.11.16.4.26.86.29.09,0,.13.06.13.15,0,.11-.04.16-.13.16-.89-.02-1.42-.04-1.56-.04-.13,0-.64.01-1.54.04-.07,0-.11-.05-.11-.16,0-.09.04-.14.11-.15.41-.03.68-.09.8-.17.09-.06.13-.17.13-.33,0-.15-.09-.49-.28-1.02l-.52-1.5ZM246.48,71.71c-.06.18-.15.44-.29.79-.14.39-.25.69-.33.89l-.68,1.91c.29.02.73.02,1.33.02.55,0,.96,0,1.21-.02l-.69-1.91c-.18-.52-.36-1.08-.56-1.68Z"/>
            <path class="cls-1" d="M255.09,74.96c.52-.85,1.03-1.27,1.52-1.27.2,0,.37.04.49.11.11.07.16.14.16.23,0,.19-.08.37-.23.54-.12.14-.24.21-.36.21-.08,0-.2-.04-.34-.11-.14-.07-.25-.11-.31-.11-.17,0-.37.15-.59.45-.23.3-.35.64-.35,1.01v1.39c0,.71.03,1.12.08,1.22.07.12.3.19.71.22.06.01.09.06.09.13,0,.09-.03.13-.09.13-.48-.02-.88-.02-1.19-.02-.34,0-.74,0-1.22.02-.07,0-.11-.04-.11-.13,0-.08.04-.12.11-.13.24-.02.4-.04.48-.08.06-.03.12-.07.16-.14.08-.11.12-.52.12-1.22v-1.68c0-.5-.04-.82-.11-.97-.09-.17-.2-.25-.33-.25l-.43.02c-.07,0-.11-.05-.11-.15,0-.08.05-.14.15-.17.56-.11,1.08-.28,1.57-.49.09,0,.14.04.14.11-.02.46-.02.84-.02,1.12Z"/>
            <path class="cls-1" d="M262.44,73.68c.48,0,.94.09,1.35.26.3.13.45.3.45.5,0,.25-.05.43-.14.56-.07.11-.16.16-.26.16-.14,0-.32-.18-.56-.53l-.08-.11c-.22-.32-.49-.49-.8-.49-.47,0-.84.24-1.12.72-.25.44-.38,1.01-.38,1.71s.2,1.29.6,1.73c.32.36.69.54,1.1.54s.75-.07,1-.22c.21-.12.41-.32.62-.59.03-.04.06-.06.08-.06.05,0,.11.02.15.06.04.03.06.06.06.1,0,.01,0,.04-.02.07-.5.8-1.18,1.2-2.06,1.2-.77,0-1.4-.29-1.89-.86-.43-.51-.64-1.15-.64-1.92,0-.89.28-1.61.84-2.16.48-.46,1.05-.7,1.71-.7Z"/>
            <path class="cls-1" d="M268.66,74.77c.46-.73,1.08-1.1,1.85-1.1.54,0,.96.16,1.27.47.29.29.43.69.43,1.19l-.02,1.31v.76c0,.7.03,1.11.09,1.22.05.11.28.18.67.22.07.01.11.06.11.15s-.04.13-.12.13c-.48-.02-.87-.02-1.15-.02s-.69,0-1.19.02c-.08,0-.12-.04-.12-.13s.04-.13.12-.15c.36-.03.57-.1.63-.22.06-.13.09-.54.09-1.22v-1.86c0-.28-.04-.5-.12-.66-.2-.4-.55-.6-1.04-.6s-.92.22-1.24.66c-.17.25-.25.55-.25.93v1.54c0,.71.02,1.12.07,1.22s.28.18.7.22c.07.01.11.06.11.15s-.04.13-.11.13c-.5-.02-.87-.02-1.12-.02-.32,0-.74,0-1.25.02-.06,0-.09-.04-.09-.13s.03-.13.09-.15c.25-.02.41-.05.49-.08.07-.03.12-.07.15-.13.07-.12.11-.53.11-1.22v-5.27c0-.5-.03-.82-.09-.98-.07-.16-.18-.24-.34-.24l-.42.02c-.07,0-.1-.05-.1-.15,0-.09.05-.14.15-.16.45-.09.97-.25,1.58-.48.09,0,.13.03.13.08-.04.98-.06,1.93-.06,2.85v1.71Z"/>
            <path class="cls-1" d="M276.57,75.71c0-.5-.03-.83-.09-.98-.07-.16-.19-.24-.35-.24l-.45.02c-.06,0-.09-.05-.09-.16,0-.07.05-.13.15-.16.6-.14,1.13-.31,1.59-.49.09,0,.14.04.14.11-.03.76-.05,1.45-.05,2.06v1.5c0,.74.02,1.15.07,1.24.06.11.3.17.71.21.06.01.09.05.09.13,0,.11-.03.16-.09.16-.48-.02-.87-.02-1.17-.02-.35,0-.76,0-1.22.02-.06,0-.09-.05-.09-.16,0-.07.03-.12.09-.13.36-.04.58-.11.66-.21.06-.09.09-.5.09-1.24v-1.67ZM276.93,70.42c.18,0,.34.08.48.23.12.14.18.28.18.43,0,.2-.08.37-.23.5-.13.11-.28.17-.43.17-.19,0-.35-.07-.49-.22-.12-.13-.19-.28-.19-.45s.08-.34.24-.48c.13-.12.28-.19.44-.19Z"/>
            <path class="cls-1" d="M281.65,74.34h-.74c-.08.01-.12-.04-.12-.15s.04-.16.12-.18c.36-.08.64-.24.86-.48.2-.23.36-.5.48-.82.02-.07.08-.11.18-.11.11,0,.16.04.16.12-.02.59-.04.97-.04,1.15.45,0,.99,0,1.63-.02.05,0,.07.02.07.07l-.11.34c-.02.05-.06.08-.12.08-.29-.02-.79-.04-1.5-.04l-.02,2.94c0,.58.08.98.24,1.2.16.21.37.31.63.31.29,0,.54-.11.76-.33.02-.02.05-.04.07-.04.04,0,.09.03.13.08.04.04.05.08.05.12,0,.02-.01.05-.04.07-.39.43-.81.64-1.26.64-.5,0-.87-.14-1.12-.41-.24-.27-.36-.7-.36-1.28l.02-1.63.02-1.65Z"/>
            <path class="cls-1" d="M288.03,75.98c-.02.19-.04.35-.04.49,0,.71.21,1.29.63,1.75.34.37.73.55,1.16.55.69,0,1.24-.28,1.63-.84.02-.03.05-.05.08-.05.05,0,.09.02.14.06.04.03.06.06.06.09,0,.04-.02.09-.07.15-.5.75-1.17,1.12-2.02,1.12s-1.46-.28-1.95-.85c-.43-.51-.65-1.15-.65-1.92,0-.87.28-1.58.83-2.14.48-.48,1.05-.72,1.73-.72.64,0,1.16.23,1.58.69.35.39.55.87.59,1.44,0,.06-.02.11-.06.15s-.08.06-.12.06c-.81-.02-1.6-.04-2.36-.04-.54,0-.93,0-1.18.01ZM288.1,75.56c.23,0,.56.01.98.01.54,0,1.06-.02,1.55-.05.08,0,.12-.05.12-.16-.04-.43-.18-.77-.41-1.02-.21-.22-.46-.33-.76-.33-.36,0-.68.15-.95.45-.25.27-.43.63-.54,1.09Z"/>
            <path class="cls-1" d="M297.26,73.68c.48,0,.94.09,1.35.26.3.13.45.3.45.5,0,.25-.05.43-.14.56-.07.11-.16.16-.26.16-.14,0-.32-.18-.56-.53l-.08-.11c-.22-.32-.49-.49-.8-.49-.47,0-.84.24-1.12.72-.25.44-.38,1.01-.38,1.71s.2,1.29.6,1.73c.32.36.69.54,1.1.54s.75-.07,1-.22c.21-.12.41-.32.62-.59.03-.04.06-.06.08-.06.05,0,.11.02.15.06.04.03.06.06.06.1,0,.01,0,.04-.02.07-.5.8-1.18,1.2-2.06,1.2-.77,0-1.4-.29-1.89-.86-.43-.51-.64-1.15-.64-1.92,0-.89.28-1.61.84-2.16.48-.46,1.05-.7,1.71-.7Z"/>
            <path class="cls-1" d="M302.64,74.34h-.74c-.08.01-.12-.04-.12-.15s.04-.16.12-.18c.36-.08.64-.24.86-.48.2-.23.36-.5.48-.82.02-.07.08-.11.18-.11.11,0,.16.04.16.12-.02.59-.04.97-.04,1.15.45,0,.99,0,1.63-.02.05,0,.07.02.07.07l-.11.34c-.02.05-.06.08-.12.08-.29-.02-.79-.04-1.5-.04l-.02,2.94c0,.58.08.98.24,1.2.16.21.37.31.63.31.29,0,.54-.11.76-.33.02-.02.05-.04.07-.04.04,0,.09.03.13.08.04.04.05.08.05.12,0,.02-.01.05-.04.07-.39.43-.81.64-1.26.64-.5,0-.87-.14-1.12-.41-.24-.27-.36-.7-.36-1.28l.02-1.63.02-1.65Z"/>
            <path class="cls-1" d="M312.16,79.31c-.08,0-.12-.04-.12-.11.02-.43.02-.75.02-.97-.43.72-1.04,1.08-1.8,1.08-.54,0-.96-.16-1.27-.47-.28-.29-.42-.66-.42-1.14,0-.54,0-.97,0-1.27v-.88c0-.51-.03-.83-.09-.96-.07-.17-.19-.25-.35-.25l-.38.02c-.07,0-.11-.05-.11-.15s.05-.15.15-.16c.55-.09,1.07-.19,1.55-.31.09,0,.13.04.13.11-.02.69-.04,1.37-.04,2.03v1.2c0,.49.05.84.15,1.04.2.41.54.62,1.01.62s.87-.22,1.19-.67c.11-.15.18-.29.22-.42.03-.12.05-.28.05-.5v-1.61c0-.51-.03-.83-.08-.96-.07-.17-.19-.25-.34-.25l-.38.02c-.07,0-.11-.05-.11-.15s.04-.15.13-.16c.61-.09,1.13-.2,1.55-.31.09,0,.13.04.13.12-.02.64-.04,1.32-.04,2.02v1.58c0,.69.03,1.09.08,1.19.06.12.21.18.47.19h.22c.07.02.11.07.11.14,0,.09-.04.13-.11.15-.52.03-1.04.09-1.54.19Z"/>
            <path class="cls-1" d="M318.26,74.96c.52-.85,1.03-1.27,1.52-1.27.2,0,.37.04.49.11.11.07.16.14.16.23,0,.19-.08.37-.23.54-.12.14-.24.21-.36.21-.08,0-.2-.04-.34-.11-.14-.07-.25-.11-.31-.11-.17,0-.37.15-.59.45-.23.3-.35.64-.35,1.01v1.39c0,.71.03,1.12.08,1.22.07.12.3.19.71.22.06.01.09.06.09.13,0,.09-.03.13-.09.13-.48-.02-.88-.02-1.19-.02-.34,0-.74,0-1.22.02-.07,0-.11-.04-.11-.13,0-.08.04-.12.11-.13.24-.02.4-.04.48-.08.06-.03.12-.07.16-.14.08-.11.12-.52.12-1.22v-1.68c0-.5-.04-.82-.11-.97-.09-.17-.2-.25-.33-.25l-.43.02c-.07,0-.11-.05-.11-.15,0-.08.05-.14.15-.17.56-.11,1.08-.28,1.57-.49.09,0,.14.04.14.11-.02.46-.02.84-.02,1.12Z"/>
            <path class="cls-1" d="M326.17,78.64c-.29.25-.56.43-.83.53-.25.09-.54.13-.88.13-.44,0-.79-.13-1.05-.38-.22-.22-.33-.5-.33-.83,0-.45.14-.8.41-1.05.2-.2.67-.41,1.42-.64.45-.14.77-.27.95-.4.18-.14.26-.29.26-.46v-.31c0-.82-.26-1.23-.77-1.23-.34,0-.61.1-.81.29-.14.14-.22.34-.22.59,0,.15-.08.28-.24.38-.14.09-.32.13-.53.13s-.32-.11-.32-.32c0-.36.24-.7.73-1,.43-.27.91-.4,1.42-.4.63,0,1.07.13,1.31.4.21.23.31.61.3,1.14l-.02,2.6c-.01.68.14,1.02.45,1.02.11,0,.21-.03.29-.09.05-.03.08-.04.11-.04.04,0,.07.02.09.06.03.04.04.08.04.12,0,.03-.02.05-.05.07-.28.2-.58.3-.89.3-.43,0-.71-.2-.86-.6ZM326.13,76.18c-.12.15-.48.34-1.1.57-.38.14-.64.31-.79.5-.14.18-.21.4-.21.67,0,.29.1.52.29.7.17.15.36.23.58.23.38,0,.69-.11.92-.33.2-.19.29-.41.29-.67v-1.66Z"/>
            <path class="cls-1" d="M331.19,77.38v-5.26c0-.5-.03-.83-.09-.98-.06-.16-.19-.24-.38-.24l-.42.02c-.06,0-.09-.05-.09-.14s.04-.15.13-.17c.46-.09,1-.25,1.63-.48.08,0,.12.03.12.1-.03.74-.05,1.69-.05,2.85v4.29c0,.72.03,1.13.09,1.24.07.11.29.18.69.22.07.01.11.06.11.15s-.04.13-.11.13c-.48-.02-.86-.02-1.14-.02-.32,0-.74,0-1.25.02-.06,0-.09-.04-.09-.13s.03-.13.09-.15c.37-.03.58-.1.64-.22.08-.14.12-.56.12-1.24Z"/>
          </g>
          <g>
            <path class="cls-1" d="M345.94,70.57c1.64,0,2.89.44,3.74,1.31.72.73,1.08,1.7,1.08,2.89,0,1.41-.49,2.51-1.48,3.3-.88.71-2.02,1.06-3.45,1.06-.38,0-.76-.01-1.15-.04-.39-.02-.76-.04-1.12-.04-.41,0-.89.02-1.44.05-.07,0-.11-.05-.11-.16,0-.09.04-.14.11-.15.5-.03.81-.13.91-.29.09-.13.13-.66.13-1.58v-4.21c0-.88-.04-1.39-.12-1.53-.08-.14-.42-.23-1-.28-.07,0-.11-.05-.11-.14,0-.13.04-.19.11-.19.64.03,1.13.05,1.49.05.3,0,.67-.01,1.1-.04.84-.02,1.28-.04,1.29-.04ZM344.18,72.73v4.5c0,.61.06,1,.19,1.15.21.23.69.35,1.45.35,1.27,0,2.24-.4,2.91-1.21.58-.69.87-1.59.87-2.7,0-1.27-.39-2.25-1.16-2.95-.66-.59-1.5-.88-2.53-.88-.92,0-1.44.1-1.57.31-.11.16-.16.64-.16,1.43Z"/>
            <path class="cls-1" d="M354.94,75.98c-.02.19-.04.35-.04.49,0,.71.21,1.29.63,1.75.34.37.73.55,1.16.55.69,0,1.24-.28,1.63-.84.02-.03.05-.05.08-.05.05,0,.09.02.14.06.04.03.06.06.06.09,0,.04-.02.09-.07.15-.5.75-1.17,1.12-2.02,1.12s-1.46-.28-1.95-.85c-.43-.51-.65-1.15-.65-1.92,0-.87.28-1.58.83-2.14.48-.48,1.05-.72,1.73-.72.64,0,1.16.23,1.58.69.35.39.55.87.59,1.44,0,.06-.02.11-.06.15s-.08.06-.12.06c-.81-.02-1.6-.04-2.36-.04-.54,0-.93,0-1.18.01ZM355.01,75.56c.23,0,.56.01.98.01.54,0,1.06-.02,1.55-.05.08,0,.12-.05.12-.16-.04-.43-.18-.77-.41-1.02-.21-.22-.46-.33-.76-.33-.36,0-.68.15-.95.45-.25.27-.43.63-.54,1.09Z"/>
            <path class="cls-1" d="M364.89,73.81c0,.25.04.68.1,1.28v.04s-.05.07-.16.07c-.06,0-.1-.03-.12-.08-.27-.74-.72-1.11-1.35-1.11-.3,0-.53.09-.7.26-.14.15-.22.35-.22.59,0,.2.07.36.21.49.15.14.42.29.82.46l.43.18c.55.23.92.48,1.12.76.16.23.25.52.25.87,0,.53-.19.95-.57,1.26-.35.28-.82.42-1.39.42-.5,0-1-.1-1.51-.3-.08-.29-.16-.67-.25-1.15v-.09c-.01-.07.04-.1.13-.1.06,0,.11.02.13.07.17.4.42.71.73.93.27.2.55.29.84.29.34,0,.61-.11.81-.33.17-.19.26-.42.26-.7,0-.25-.08-.46-.24-.63-.16-.16-.41-.31-.76-.46l-.42-.18c-.55-.24-.92-.48-1.11-.73-.16-.21-.23-.5-.23-.86,0-.42.17-.77.52-1.03.3-.23.68-.35,1.12-.35.21,0,.48.04.8.11.14.02.29.04.46.04.09,0,.19,0,.3-.01Z"/>
            <path class="cls-1" d="M369.07,75.71c0-.5-.03-.83-.09-.98-.07-.16-.19-.24-.35-.24l-.45.02c-.06,0-.09-.05-.09-.16,0-.07.05-.13.15-.16.6-.14,1.13-.31,1.59-.49.09,0,.14.04.14.11-.03.76-.05,1.45-.05,2.06v1.5c0,.74.02,1.15.07,1.24.06.11.3.17.71.21.06.01.09.05.09.13,0,.11-.03.16-.09.16-.48-.02-.87-.02-1.17-.02-.35,0-.76,0-1.22.02-.06,0-.09-.05-.09-.16,0-.07.03-.12.09-.13.36-.04.58-.11.66-.21.06-.09.09-.5.09-1.24v-1.67ZM369.43,70.42c.18,0,.34.08.48.23.12.14.18.28.18.43,0,.2-.08.37-.23.5-.13.11-.28.17-.43.17-.19,0-.35-.07-.49-.22-.12-.13-.19-.28-.19-.45s.08-.34.24-.48c.13-.12.28-.19.44-.19Z"/>
            <path class="cls-1" d="M374.69,79.05c-.3-.09-.51-.21-.62-.35-.09-.12-.13-.27-.13-.47,0-.43.37-.8,1.1-1.13-.88-.29-1.32-.83-1.32-1.63,0-.55.23-1,.7-1.36.39-.3.85-.45,1.37-.45.36,0,.72.09,1.1.26.66,0,1.28-.03,1.86-.08.05,0,.07.02.07.07l-.14.36c-.03.05-.07.08-.12.08-.27-.02-.67-.04-1.19-.04.31.3.47.65.47,1.07,0,.58-.21,1.04-.62,1.37-.36.3-.84.45-1.42.45-.1,0-.21-.01-.33-.04-.47.25-.71.52-.71.81,0,.25.27.37.8.37l1.21-.02c1.34,0,2.02.51,2.02,1.52,0,.66-.27,1.18-.82,1.55-.51.35-1.21.53-2.1.53-.74,0-1.33-.17-1.79-.5-.38-.28-.57-.61-.57-1,0-.62.4-1.09,1.19-1.39ZM375.1,79.17c-.08.04-.17.1-.29.18-.28.24-.42.55-.42.93,0,.44.17.78.52,1.03.3.21.69.32,1.17.32.61,0,1.09-.17,1.45-.51.3-.28.45-.61.45-1,0-.33-.12-.57-.36-.71-.21-.13-.55-.19-1.01-.19h-.73c-.27,0-.53-.01-.79-.04ZM375.79,73.99c-.37,0-.65.14-.86.43-.18.26-.28.6-.28,1.01,0,.5.12.88.37,1.15.2.22.46.33.78.33.35,0,.63-.15.84-.44.2-.27.29-.62.29-1.04,0-.47-.13-.84-.38-1.11-.21-.22-.46-.33-.77-.33Z"/>
            <path class="cls-1" d="M383.28,74.79c.47-.74,1.08-1.11,1.83-1.11.53,0,.95.16,1.27.49.29.3.44.69.44,1.16l-.02,1.32v.76c0,.71.03,1.12.1,1.22.06.11.28.18.64.22.07.01.11.06.11.13,0,.09-.04.13-.11.13-.46-.02-.84-.02-1.13-.02-.3,0-.71,0-1.2.02-.07,0-.11-.04-.11-.13,0-.08.04-.12.11-.13.33-.02.53-.09.62-.22.07-.11.11-.51.11-1.22v-1.83c0-.28-.04-.51-.13-.69-.2-.41-.55-.62-1.03-.62s-.88.22-1.21.67c-.18.24-.26.55-.26.93v1.54c0,.73.03,1.13.08,1.22.05.07.11.12.2.15.09.02.25.05.48.07.06.01.09.06.09.13,0,.09-.03.13-.09.13-.48-.02-.86-.02-1.13-.02-.32,0-.72,0-1.2.02-.06,0-.09-.04-.09-.13,0-.08.03-.12.09-.13.33-.03.53-.1.62-.22.07-.11.11-.52.11-1.22v-1.68c0-.5-.03-.82-.09-.97-.08-.17-.19-.25-.34-.25l-.42.02c-.07,0-.11-.06-.11-.18,0-.07.05-.12.16-.13.5-.11,1.01-.27,1.55-.49.09,0,.13.04.13.11-.02.43-.02.75-.02.96Z"/>
          </g>
          <g>
            <path class="cls-1" d="M401.58,70.4c1.35,0,2.44.47,3.27,1.4.72.82,1.08,1.83,1.08,3.03,0,1.39-.46,2.51-1.39,3.36-.8.74-1.79,1.11-2.96,1.11-1.34,0-2.43-.47-3.26-1.42-.72-.82-1.08-1.83-1.08-3.03,0-1.38.46-2.49,1.39-3.35.8-.74,1.79-1.11,2.96-1.11ZM401.58,70.81c-.99,0-1.78.42-2.38,1.25-.53.73-.79,1.66-.79,2.77,0,1.3.34,2.33,1.01,3.09.57.64,1.29.97,2.16.97.99,0,1.79-.42,2.38-1.25.53-.73.79-1.65.79-2.77,0-1.3-.34-2.33-1.03-3.09-.58-.64-1.3-.97-2.15-.97Z"/>
            <path class="cls-1" d="M410.79,74.33c0,.28-.01.75-.01,1.42v1.76c0,.62.03.99.09,1.1.06.11.32.18.77.22.07.01.11.06.11.16,0,.09-.04.13-.11.13-.52-.02-.95-.02-1.29-.02s-.79,0-1.3.02c-.07,0-.11-.04-.11-.13,0-.09.04-.15.11-.16.43-.03.67-.1.72-.22.08-.15.12-.56.12-1.22v-1.65c0-.4,0-.87-.02-1.39-.25,0-.58.01-.98.04-.05,0-.07-.02-.07-.05l.08-.36s.06-.07.12-.07c.21,0,.49.01.85.01v-.63c-.01-.93.27-1.71.84-2.34.46-.53,1.06-.79,1.79-.79.41,0,.62.11.62.33s-.05.41-.16.57c-.09.13-.18.19-.29.19s-.24-.07-.42-.22l-.06-.05c-.17-.14-.37-.21-.58-.21-.38,0-.63.4-.74,1.21-.05.41-.08,1.05-.08,1.92.5,0,.98-.01,1.46-.04.05,0,.08.02.08.06l-.13.36s-.06.07-.1.07c-.29-.02-.73-.02-1.33-.02Z"/>
            <path class="cls-1" d="M417.31,74.33c0,.28-.01.75-.01,1.42v1.76c0,.62.03.99.09,1.1.06.11.32.18.77.22.07.01.11.06.11.16,0,.09-.04.13-.11.13-.52-.02-.95-.02-1.29-.02s-.79,0-1.3.02c-.07,0-.11-.04-.11-.13,0-.09.04-.15.11-.16.43-.03.67-.1.72-.22.08-.15.12-.56.12-1.22v-1.65c0-.4,0-.87-.02-1.39-.25,0-.58.01-.98.04-.05,0-.07-.02-.07-.05l.08-.36s.06-.07.12-.07c.21,0,.49.01.85.01v-.63c-.01-.93.27-1.71.84-2.34.46-.53,1.06-.79,1.79-.79.41,0,.62.11.62.33s-.05.41-.16.57c-.09.13-.18.19-.29.19s-.24-.07-.42-.22l-.06-.05c-.17-.14-.37-.21-.58-.21-.38,0-.63.4-.74,1.21-.05.41-.08,1.05-.08,1.92.5,0,.98-.01,1.46-.04.05,0,.08.02.08.06l-.13.36s-.06.07-.1.07c-.29-.02-.73-.02-1.33-.02Z"/>
            <path class="cls-1" d="M422.99,75.71c0-.5-.03-.83-.09-.98-.07-.16-.19-.24-.35-.24l-.45.02c-.06,0-.09-.05-.09-.16,0-.07.05-.13.15-.16.6-.14,1.13-.31,1.59-.49.09,0,.14.04.14.11-.03.76-.05,1.45-.05,2.06v1.5c0,.74.02,1.15.07,1.24.06.11.3.17.71.21.06.01.09.05.09.13,0,.11-.03.16-.09.16-.48-.02-.87-.02-1.17-.02-.35,0-.76,0-1.22.02-.06,0-.09-.05-.09-.16,0-.07.03-.12.09-.13.36-.04.58-.11.66-.21.06-.09.09-.5.09-1.24v-1.67ZM423.35,70.42c.18,0,.34.08.48.23.12.14.18.28.18.43,0,.2-.08.37-.23.5-.13.11-.28.17-.43.17-.19,0-.35-.07-.49-.22-.12-.13-.19-.28-.19-.45s.08-.34.24-.48c.13-.12.28-.19.44-.19Z"/>
            <path class="cls-1" d="M430.47,73.68c.48,0,.94.09,1.35.26.3.13.45.3.45.5,0,.25-.05.43-.14.56-.07.11-.16.16-.26.16-.14,0-.32-.18-.56-.53l-.08-.11c-.22-.32-.49-.49-.8-.49-.47,0-.84.24-1.12.72-.25.44-.38,1.01-.38,1.71s.2,1.29.6,1.73c.32.36.69.54,1.1.54s.75-.07,1-.22c.21-.12.41-.32.62-.59.03-.04.06-.06.08-.06.05,0,.11.02.15.06.04.03.06.06.06.1,0,.01,0,.04-.02.07-.5.8-1.18,1.2-2.06,1.2-.77,0-1.4-.29-1.89-.86-.43-.51-.64-1.15-.64-1.92,0-.89.28-1.61.84-2.16.48-.46,1.05-.7,1.71-.7Z"/>
            <path class="cls-1" d="M436.87,75.98c-.02.19-.04.35-.04.49,0,.71.21,1.29.63,1.75.34.37.73.55,1.16.55.69,0,1.24-.28,1.63-.84.02-.03.05-.05.08-.05.05,0,.09.02.14.06.04.03.06.06.06.09,0,.04-.02.09-.07.15-.5.75-1.17,1.12-2.02,1.12s-1.46-.28-1.95-.85c-.43-.51-.65-1.15-.65-1.92,0-.87.28-1.58.83-2.14.48-.48,1.05-.72,1.73-.72.64,0,1.16.23,1.58.69.35.39.55.87.59,1.44,0,.06-.02.11-.06.15s-.08.06-.12.06c-.81-.02-1.6-.04-2.36-.04-.54,0-.93,0-1.18.01ZM436.94,75.56c.23,0,.56.01.98.01.54,0,1.06-.02,1.55-.05.08,0,.12-.05.12-.16-.04-.43-.18-.77-.41-1.02-.21-.22-.46-.33-.76-.33-.36,0-.68.15-.95.45-.25.27-.43.63-.54,1.09Z"/>
          </g>
        </g>
        <g>
          <g>
            <path class="cls-3" d="M81.78,1.54C57.3.79,29.43,9.56,1.5,38.16l24.57,31.9s20.29-29.6,45.71-29.6v36.21h10"/>
            <path class="cls-3" d="M81.22,1.54c24.49-.75,52.35,8.02,80.28,36.61l-24.57,31.9s-20.29-29.6-45.71-29.6v36.21h-10"/>
          </g>
          <path class="cls-5" d="M97.79,82.13c0,5.71-7.23,10.35-16.14,10.35s-16.14-4.63-16.14-10.35"/>
          <path class="cls-2" d="M52.34,80.77v1.92h-6.75v-1.92h6.75ZM59.32,85.18l1.6.56c-.5,2-1.32,3.64-2.44,4.92,1.01.57,2.1,1,3.26,1.27-.26.24-.55.57-.86.99-.31.42-.56.79-.73,1.13-1.36-.42-2.54-.99-3.54-1.72-1.06.72-2.29,1.29-3.69,1.72-.29-.73-.69-1.42-1.22-2.07v1.23h-3.29v.61h-2.06v-5.88h5.35v3.92c1.17-.29,2.19-.7,3.05-1.24-.65-.74-1.21-1.57-1.7-2.48l2.11-.68h-2.58v-2.2h.69c-.52-.54-1.03-.97-1.53-1.27v1.04h-5.32v-1.82h5.32v.6c.6-.44,1-.94,1.19-1.48s.29-1.17.29-1.88v-2.02h5.91v3.61c0,.25,0,.41.02.47.02.06.06.09.12.09h.18c.05,0,.1-.04.14-.11s.07-.23.09-.46.04-.58.05-1.04c.42.35,1.08.64,1.98.86-.1,1.07-.3,1.81-.59,2.21s-.76.6-1.4.6h-.91c-.76,0-1.28-.19-1.56-.56-.28-.37-.42-1.05-.42-2.04v-1.49h-1.3c-.02,2.13-.63,3.69-1.83,4.69h5.2l.41-.08ZM51.73,85.54v1.84h-5.32v-1.84h5.32ZM51.69,78.46v1.84h-5.24v-1.84h5.24ZM49.6,91.29v-1.44h-1.2v1.44h1.2ZM57.75,87.46h-2.54c.31.6.75,1.17,1.32,1.72.52-.54.92-1.11,1.22-1.72Z"/>
          <path class="cls-2" d="M108.36,80.77v1.92h-7.06v-1.92h7.06ZM107.64,87.94v5.27h-3.46v.61h-2.11v-5.88h5.56ZM102.14,85.03v-1.82h5.55v1.82h-5.55ZM102.14,87.38v-1.84h5.55v1.84h-5.55ZM107.72,78.46v1.84h-5.48v-1.84h5.48ZM105.5,89.85h-1.32v1.44h1.32v-1.44ZM117.45,83.61v2.45h-3.37v8.01h-2.5v-8.01h-3.31v-2.45h3.31v-5.55h2.5v5.55h3.37Z"/>
          <path class="cls-4" d="M49.6,54.61c.44-.48,1.95-1.8,2.5-2.03.32-.13.25-.27.59.12-3.37,4.32-3.99,10.5-2.25,15.66,1.48,4.38,5.01,6.88,9.53,4.98,3.19-1.34,4.22-5.02,4.28-8.25.08-4.03-.94-13.86-6.84-12.5-2.95.68-3.87,6.05-2.08,8.1,1.27,1.46,2.24-.43,3.24-.37,2.19.14,1.29,3.19-1.25,3.28-5.79.21-6.33-11.5.6-12.43,10.34-1.39,14.1,19.33,2.71,23.4-12.15,4.34-18.91-11.34-11.03-19.98Z"/>
          <g>
            <path class="cls-4" d="M98.41,70.6c.07-.08.13-.15.19-.23,3.01-3.79,2.96-9.67,2.91-14.26.93.61.74,2.33,1.59,3.01l3.92,10.88c.26.45,1.12.22,1.57.21l.24-.29,5.36-14.95.49-.38.31,13.42c0,.06-.64.85-.78.95-.3.22-1.77.55-1.43,1.04.24.35,2.38-.05,2.85-.07,1.2-.05,2.72.08,3.86-.08.16-.02.4-.04.45-.22.15-.54-.87-.59-1.22-.76-.86-.42-1.15-1.21-1.24-2.11-.4-3.95-.16-8.29-.41-12.27.19-1.19,1.12-1.71,2.2-2l-.07-.4c-.11-.13-.25-.11-.4-.12-.84-.08-2.45,0-3.32.09-.34.03-1.52.17-1.66.36l-5.18,14.23h-.43s-5.02-14-5.02-14c-.21-.14-.46-.14-.7-.15-2.3-.11-6.88-.05-8.86,1.03-3.52,1.92-2.72,6.72,1.25,7.01,1.34.1,3.19-1.44,1.83-2.62-1.51-1.32-2.65,1.65-3.67-.37-.85-1.67.83-2.99,2.25-3.46,1.26-.42,4.56-1.05,4.89.72.23,1.25.2,4.09.16,5.45-.08,2.72-.47,5.52-1.6,7.79-.23.47-.5.91-.8,1.32-.06.06-.12.12-.18.18"/>
            <path class="cls-4" d="M98.42,70.58s-2.15,1.33-2.69.34c-.06-.11-.19-.15-.26-.24-1.39-1.7-1.46-5.65,1.02-6.27,1.1-.28,1.81.74,1.21,1.68-.42.67-1.47.55-1.81,1.29-.25.53-.05,1.11,0,1.71.13,1.75,1.9.41,1.9.41"/>
          </g>
        </g>
      </g>
    </g>
  </g>
</svg>